HIERARCHY
ROOT Hip
{
	OFFSET	0.0000	0.0000	0.0000
	CHANNELS 6 Xposition Yposition Zposition Xrotation Yrotation Zrotation
	JOINT LowerSpine
	{
		OFFSET	0.0000	9.2663	-5.5158
		CHANNELS 3 Xrotation Yrotation Zrotation
		JOINT MiddleSpine
		{
			OFFSET	0.0000	8.4562	0.3976
			CHANNELS 3 Xrotation Yrotation Zrotation
			JOINT Chest
			{
				OFFSET	0.0000	10.4635	-2.0962
				CHANNELS 3 Xrotation Yrotation Zrotation
				JOINT Neck
				{
					OFFSET	0.0000	23.5793	-0.4413
					CHANNELS 3 Xrotation Yrotation Zrotation
					JOINT Head
					{
						OFFSET	-0.0001	13.3155	3.6218
						CHANNELS 3 Xrotation Yrotation Zrotation
						End Site
						{
							OFFSET	0.0001	18.6051	0.5554
						}
					}
				}
				JOINT LClavicle
				{
					OFFSET	2.1425	22.7552	7.0165
					CHANNELS 3 Xrotation Yrotation Zrotation
					JOINT LShoulder
					{
						OFFSET	12.5166	3.2639	-5.2813
						CHANNELS 3 Xrotation Yrotation Zrotation
						JOINT LForearm
						{
							OFFSET	29.5419	-0.1047	-0.2560
							CHANNELS 3 Xrotation Yrotation Zrotation
							JOINT LHand
							{
								OFFSET	24.6442	0.0715	-0.1476
								CHANNELS 3 Xrotation Yrotation Zrotation
								JOINT LFinger1
								{
									OFFSET	9.5514	0.8353	2.6529
									CHANNELS 3 Xrotation Yrotation Zrotation
									JOINT LFinger11
									{
										OFFSET	3.5727	-0.8712	0.6295
										CHANNELS 3 Xrotation Yrotation Zrotation
										JOINT LFinger12
										{
											OFFSET	2.4390	-0.5949	0.4299
											CHANNELS 3 Xrotation Yrotation Zrotation
											End Site
											{
												OFFSET	1.7356	-0.5181	0.2815
											}
										}
									}
								}
								JOINT LFinger2
								{
									OFFSET	9.6939	0.9646	0.2310
									CHANNELS 3 Xrotation Yrotation Zrotation
									JOINT LFinger21
									{
										OFFSET	4.4174	0.0123	-0.0261
										CHANNELS 3 Xrotation Yrotation Zrotation
										JOINT LFinger22
										{
											OFFSET	2.4486	0.0075	-0.0149
											CHANNELS 3 Xrotation Yrotation Zrotation
											End Site
											{
												OFFSET	2.1993	-0.1553	0.0029
											}
										}
									}
								}
								JOINT LFinger3
								{
									OFFSET	9.1870	0.6438	-2.1735
									CHANNELS 3 Xrotation Yrotation Zrotation
									JOINT LFinger31
									{
										OFFSET	4.0084	-0.2029	-0.2510
										CHANNELS 3 Xrotation Yrotation Zrotation
										JOINT LFinger32
										{
											OFFSET	2.2842	-0.1149	-0.1435
											CHANNELS 3 Xrotation Yrotation Zrotation
											End Site
											{
												OFFSET	2.0196	-0.2483	-0.0955
											}
										}
									}
								}
								JOINT LFinger4
								{
									OFFSET	8.5252	-0.6478	-3.7536
									CHANNELS 3 Xrotation Yrotation Zrotation
									JOINT LFinger41
									{
										OFFSET	2.4655	-0.5142	-0.6806
										CHANNELS 3 Xrotation Yrotation Zrotation
										JOINT LFinger42
										{
											OFFSET	1.8080	-0.3765	-0.4994
											CHANNELS 3 Xrotation Yrotation Zrotation
											End Site
											{
												OFFSET	1.6047	-0.4409	-0.3682
											}
										}
									}
								}
								JOINT LFinger0
								{
									OFFSET	1.9759	-1.4955	1.4979
									CHANNELS 3 Xrotation Yrotation Zrotation
									JOINT LFinger01
									{
										OFFSET	3.6787	-1.2081	2.7735
										CHANNELS 3 Xrotation Yrotation Zrotation
										JOINT LFinger02
										{
											OFFSET	2.4224	-0.8668	1.7452
											CHANNELS 3 Xrotation Yrotation Zrotation
											End Site
											{
												OFFSET	1.7813	-0.6132	1.2198
											}
										}
									}
								}
							}
						}
					}
				}
				JOINT RClavicle
				{
					OFFSET	-2.1425	22.7552	7.0164
					CHANNELS 3 Xrotation Yrotation Zrotation
					JOINT RShoulder
					{
						OFFSET	-12.5188	3.2645	-5.2822
						CHANNELS 3 Xrotation Yrotation Zrotation
						JOINT RForearm
						{
							OFFSET	-29.5419	-0.1047	-0.2560
							CHANNELS 3 Xrotation Yrotation Zrotation
							JOINT RHand
							{
								OFFSET	-24.6442	0.0715	-0.1476
								CHANNELS 3 Xrotation Yrotation Zrotation
								JOINT RFinger1
								{
									OFFSET	-9.5514	0.8354	2.6529
									CHANNELS 3 Xrotation Yrotation Zrotation
									JOINT RFinger11
									{
										OFFSET	-3.5727	-0.8712	0.6295
										CHANNELS 3 Xrotation Yrotation Zrotation
										JOINT RFinger12
										{
											OFFSET	-2.4390	-0.5950	0.4299
											CHANNELS 3 Xrotation Yrotation Zrotation
											End Site
											{
												OFFSET	-1.7356	-0.5181	0.2815
											}
										}
									}
								}
								JOINT RFinger2
								{
									OFFSET	-9.6939	0.9647	0.2310
									CHANNELS 3 Xrotation Yrotation Zrotation
									JOINT RFinger21
									{
										OFFSET	-4.4175	0.0123	-0.0261
										CHANNELS 3 Xrotation Yrotation Zrotation
										JOINT RFinger22
										{
											OFFSET	-2.4486	0.0075	-0.0150
											CHANNELS 3 Xrotation Yrotation Zrotation
											End Site
											{
												OFFSET	-2.1993	-0.1553	0.0029
											}
										}
									}
								}
								JOINT RFinger3
								{
									OFFSET	-9.1870	0.6438	-2.1735
									CHANNELS 3 Xrotation Yrotation Zrotation
									JOINT RFinger31
									{
										OFFSET	-4.0084	-0.2029	-0.2510
										CHANNELS 3 Xrotation Yrotation Zrotation
										JOINT RFinger32
										{
											OFFSET	-2.2842	-0.1149	-0.1435
											CHANNELS 3 Xrotation Yrotation Zrotation
											End Site
											{
												OFFSET	-2.0196	-0.2483	-0.0955
											}
										}
									}
								}
								JOINT RFinger4
								{
									OFFSET	-8.5252	-0.6478	-3.7536
									CHANNELS 3 Xrotation Yrotation Zrotation
									JOINT RFinger41
									{
										OFFSET	-2.4655	-0.5141	-0.6806
										CHANNELS 3 Xrotation Yrotation Zrotation
										JOINT RFinger42
										{
											OFFSET	-1.8080	-0.3764	-0.4994
											CHANNELS 3 Xrotation Yrotation Zrotation
											End Site
											{
												OFFSET	-1.6047	-0.4409	-0.3682
											}
										}
									}
								}
								JOINT RFinger0
								{
									OFFSET	-1.9759	-1.4954	1.4978
									CHANNELS 3 Xrotation Yrotation Zrotation
									JOINT RFinger01
									{
										OFFSET	-3.6787	-1.2083	2.7736
										CHANNELS 3 Xrotation Yrotation Zrotation
										JOINT RFinger02
										{
											OFFSET	-2.4223	-0.8667	1.7452
											CHANNELS 3 Xrotation Yrotation Zrotation
											End Site
											{
												OFFSET	-1.7813	-0.6132	1.2198
											}
										}
									}
								}
							}
						}
					}
				}
			}
		}
	}
	JOINT RThigh
	{
		OFFSET	-10.9561	4.1886	-0.8987
		CHANNELS 3 Xrotation Yrotation Zrotation
		JOINT RShin
		{
			OFFSET	-0.7932	-43.1154	0.0000
			CHANNELS 3 Xrotation Yrotation Zrotation
			JOINT RFoot
			{
				OFFSET	0.0000	-42.3368	0.0000
				CHANNELS 3 Xrotation Yrotation Zrotation
				JOINT RToe
				{
					OFFSET	0.0000	-4.6532	9.7304
					CHANNELS 3 Xrotation Yrotation Zrotation
					End Site
					{
						OFFSET	0.0000	0.0000	6.5278
					}
				}
			}
		}
	}
	JOINT LThigh
	{
		OFFSET	10.9559	4.1889	-0.8988
		CHANNELS 3 Xrotation Yrotation Zrotation
		JOINT LShin
		{
			OFFSET	0.7933	-43.1157	0.0000
			CHANNELS 3 Xrotation Yrotation Zrotation
			JOINT LFoot
			{
				OFFSET	0.0000	-42.3368	0.0000
				CHANNELS 3 Xrotation Yrotation Zrotation
				JOINT LToe
				{
					OFFSET	0.0000	-4.6532	9.7305
					CHANNELS 3 Xrotation Yrotation Zrotation
					End Site
					{
						OFFSET	0.0000	0.0000	6.5278
					}
				}
			}
		}
	}
}
MOTION
Frames:	6
Frame Time: 0.0333333000
	0.4917	48.7650	-38.2220	40.779300	44.911030	-39.395210	0.164994	2.320473	-0.159907	-4.129554	-1.319224	-5.808309	-14.351950	0.097578	-20.461540	-0.051544	-0.003566	0.013312	-0.020006	0.003980	-0.133889	-5.308303	-0.033496	-27.436740	-10.937640	-4.333522	38.295880	0.000000	-3.279759	0.000000	0.000000	0.000000	0.000000	0.000000	0.000000	0.000000	0.000000	0.000000	0.000000	0.000000	0.000000	0.000000	0.000000	0.000000	0.000000	0.000000	0.000000	0.000000	0.000000	0.000000	0.000000	0.000000	0.000000	0.000000	0.000000	0.000000	0.000000	0.000000	0.000000	0.000000	0.000000	0.000000	0.000000	0.000000	0.000000	0.000000	0.000000	0.000000	0.000000	0.000000	0.000000	0.000000	0.000000	0.000000	0.000000	0.000000	0.000000	0.000000	8.832255	15.922610	1.395469	14.137310	14.614830	-29.155400	179.923600	36.509720	-179.642400	0.000000	0.000000	0.000000	0.000000	0.000000	0.000000	0.000000	0.000000	0.000000	0.000000	0.000000	0.000000	0.000000	0.000000	0.000000	0.000000	0.000000	0.000000	0.000000	0.000000	0.000000	0.000000	0.000000	0.000000	0.000000	0.000000	0.000000	0.000000	0.000000	0.000000	0.000000	0.000000	0.000000	0.000000	0.000000	0.000000	0.000000	0.000000	0.000000	0.000000	0.000000	0.000000	0.000000	0.000000	0.000000	0.000000	0.000000	0.000000	-91.859470	-8.870664	-39.525700	71.167940	-0.000003	0.000000	5.174982	-21.026390	-8.995464	0.000000	0.000000	0.000000	-88.574810	8.336508	58.336230	68.945740	0.000004	-0.000001	1.800305	-0.434080	-0.201066	-0.017516	0.000000	0.000000
	1.0689	47.9656	-39.2724	41.420070	45.321580	-40.396500	0.163978	2.306468	-0.158921	-4.227974	-1.346005	-6.114911	-14.879780	-0.238498	-21.538240	-0.040718	-0.003751	0.013925	-0.023768	0.005168	-0.173729	-5.296185	-0.036642	-27.376860	-11.842720	-3.892650	41.629730	0.000000	-3.303121	0.000000	0.000000	0.000000	0.000000	0.000000	0.000000	0.000000	0.000000	0.000000	0.000000	0.000000	0.000000	0.000000	0.000000	0.000000	0.000000	0.000000	0.000000	0.000000	0.000000	0.000000	0.000000	0.000000	0.000000	0.000000	0.000000	0.000000	0.000000	0.000000	0.000000	0.000000	0.000000	0.000000	0.000000	0.000000	0.000000	0.000000	0.000000	0.000000	0.000000	0.000000	0.000000	0.000000	0.000000	0.000000	0.000000	0.000000	0.000000	0.000000	8.791241	15.774950	1.238644	10.824800	15.181350	-38.303210	179.914200	38.776500	-179.637400	0.000000	0.000000	0.000000	0.000000	0.000000	0.000000	0.000000	0.000000	0.000000	0.000000	0.000000	0.000000	0.000000	0.000000	0.000000	0.000000	0.000000	0.000000	0.000000	0.000000	0.000000	0.000000	0.000000	0.000000	0.000000	0.000000	0.000000	0.000000	0.000000	0.000000	0.000000	0.000000	0.000000	0.000000	0.000000	0.000000	0.000000	0.000000	0.000000	0.000000	0.000000	0.000000	0.000000	0.000000	0.000000	0.000000	0.000000	0.000000	-92.135690	-8.220469	-40.662220	71.326920	-0.000003	0.000000	6.083021	-20.775250	-8.690122	0.000000	0.000000	0.000000	-89.995270	7.136552	58.002700	71.926750	0.000004	-0.000001	0.619251	-0.462869	-0.217097	-0.102348	0.000000	0.000000
	1.6250	47.2509	-40.1862	42.090420	45.708660	-41.459860	0.161684	2.274841	-0.156696	-4.320114	-1.383228	-6.417085	-15.443720	-0.627940	-22.652050	-0.033878	-0.004039	0.014939	-0.025418	0.005641	-0.189548	-5.295327	-0.044590	-27.249950	-12.623840	-3.963298	44.940450	0.000000	-3.112354	0.000000	0.000000	0.000000	0.000000	0.000000	0.000000	0.000000	0.000000	0.000000	0.000000	0.000000	0.000000	0.000000	0.000000	0.000000	0.000000	0.000000	0.000000	0.000000	0.000000	0.000000	0.000000	0.000000	0.000000	0.000000	0.000000	0.000000	0.000000	0.000000	0.000000	0.000000	0.000000	0.000000	0.000000	0.000000	0.000000	0.000000	0.000000	0.000000	0.000000	0.000000	0.000000	0.000000	0.000000	0.000000	0.000000	0.000000	0.000000	0.000000	8.740304	15.615040	1.097668	7.767435	16.639550	-46.080940	179.899300	42.132130	-179.628600	0.000000	0.000000	0.000000	0.000000	0.000000	0.000000	0.000000	0.000000	0.000000	0.000000	0.000000	0.000000	0.000000	0.000000	0.000000	0.000000	0.000000	0.000000	0.000000	0.000000	0.000000	0.000000	0.000000	0.000000	0.000000	0.000000	0.000000	0.000000	0.000000	0.000000	0.000000	0.000000	0.000000	0.000000	0.000000	0.000000	0.000000	0.000000	0.000000	0.000000	0.000000	0.000000	0.000000	0.000000	0.000000	0.000000	0.000000	0.000000	-92.383380	-7.802627	-41.801110	71.444810	-0.000003	0.000000	6.724734	-20.458170	-8.421320	0.000000	0.000000	0.000000	-91.238660	6.017655	57.625260	74.537970	0.000004	-0.000001	-0.472471	-0.678542	-0.326917	-0.265307	0.000000	0.000000
	2.0105	46.6680	-40.8954	42.888580	45.985210	-42.784870	0.160962	2.264883	-0.155995	-4.405051	-1.429640	-6.714063	-16.047250	-1.085081	-23.856810	-0.029475	-0.004423	0.016319	-0.031911	0.007388	-0.247812	-5.251810	-0.057086	-27.038450	-13.269230	-4.733506	48.442900	0.000000	-2.661276	0.000000	0.000000	0.000000	0.000000	0.000000	0.000000	0.000000	0.000000	0.000000	0.000000	0.000000	0.000000	0.000000	0.000000	0.000000	0.000000	0.000000	0.000000	0.000000	0.000000	0.000000	0.000000	0.000000	0.000000	0.000000	0.000000	0.000000	0.000000	0.000000	0.000000	0.000000	0.000000	0.000000	0.000000	0.000000	0.000000	0.000000	0.000000	0.000000	0.000000	0.000000	0.000000	0.000000	0.000000	0.000000	0.000000	0.000000	0.000000	0.000000	8.667933	15.420370	0.976769	4.477891	19.017800	-51.890850	179.879900	46.006620	-179.616200	0.000000	0.000000	0.000000	0.000000	0.000000	0.000000	0.000000	0.000000	0.000000	0.000000	0.000000	0.000000	0.000000	0.000000	0.000000	0.000000	0.000000	0.000000	0.000000	0.000000	0.000000	0.000000	0.000000	0.000000	0.000000	0.000000	0.000000	0.000000	0.000000	0.000000	0.000000	0.000000	0.000000	0.000000	0.000000	0.000000	0.000000	0.000000	0.000000	0.000000	0.000000	0.000000	0.000000	0.000000	0.000000	0.000000	0.000000	0.000000	-92.672950	-7.729377	-42.745620	71.530880	-0.000003	0.000000	7.126860	-20.332070	-8.285406	0.000000	0.000000	0.000000	-92.457250	4.849868	57.212100	76.591600	0.000004	-0.000001	-1.256515	-0.761153	-0.374672	-0.424536	0.000000	0.000000
	2.2382	46.2120	-41.4192	43.756360	46.166260	-44.265580	0.158835	2.235531	-0.153931	-4.481863	-1.483814	-7.005134	-16.689640	-1.614750	-25.211170	-0.026652	-0.004891	0.018009	-0.035781	0.008391	-0.281165	-5.183087	-0.075512	-26.722040	-13.775200	-6.148529	52.234680	0.000000	-1.966839	0.000000	0.000000	0.000000	0.000000	0.000000	0.000000	0.000000	0.000000	0.000000	0.000000	0.000000	0.000000	0.000000	0.000000	0.000000	0.000000	0.000000	0.000000	0.000000	0.000000	0.000000	0.000000	0.000000	0.000000	0.000000	0.000000	0.000000	0.000000	0.000000	0.000000	0.000000	0.000000	0.000000	0.000000	0.000000	0.000000	0.000000	0.000000	0.000000	0.000000	0.000000	0.000000	0.000000	0.000000	0.000000	0.000000	0.000000	0.000000	0.000000	8.547644	15.140340	0.888238	1.005839	22.309090	-55.708080	179.855000	50.251980	-179.599000	0.000000	0.000000	0.000000	0.000000	0.000000	0.000000	0.000000	0.000000	0.000000	0.000000	0.000000	0.000000	0.000000	0.000000	0.000000	0.000000	0.000000	0.000000	0.000000	0.000000	0.000000	0.000000	0.000000	0.000000	0.000000	0.000000	0.000000	0.000000	0.000000	0.000000	0.000000	0.000000	0.000000	0.000000	0.000000	0.000000	0.000000	0.000000	0.000000	0.000000	0.000000	0.000000	0.000000	0.000000	0.000000	0.000000	0.000000	0.000000	-92.945950	-7.883869	-43.472610	71.597760	-0.000003	0.000000	7.315648	-20.331420	-8.245696	0.000000	0.000000	0.000000	-93.650620	3.710764	56.784000	78.118290	0.000004	-0.000001	-1.770842	-0.576184	-0.286570	-0.517196	0.000000	0.000000
	2.4119	45.8438	-41.8366	44.514690	46.299740	-45.592390	0.158145	2.226007	-0.153262	-4.549664	-1.544186	-7.289628	-17.331990	-2.165297	-26.609370	-0.025247	-0.005418	0.019924	-0.041224	0.009783	-0.327306	-5.111940	-0.094024	-26.398410	-14.112000	-7.831065	56.018520	0.000000	-1.145055	0.000000	0.000000	0.000000	0.000000	0.000000	0.000000	0.000000	0.000000	0.000000	0.000000	0.000000	0.000000	0.000000	0.000000	0.000000	0.000000	0.000000	0.000000	0.000000	0.000000	0.000000	0.000000	0.000000	0.000000	0.000000	0.000000	0.000000	0.000000	0.000000	0.000000	0.000000	0.000000	0.000000	0.000000	0.000000	0.000000	0.000000	0.000000	0.000000	0.000000	0.000000	0.000000	0.000000	0.000000	0.000000	0.000000	0.000000	0.000000	0.000000	8.358069	14.734180	0.844566	-2.558974	26.577700	-58.009450	179.821200	55.073310	-179.573500	0.000000	0.000000	0.000000	0.000000	0.000000	0.000000	0.000000	0.000000	0.000000	0.000000	0.000000	0.000000	0.000000	0.000000	0.000000	0.000000	0.000000	0.000000	0.000000	0.000000	0.000000	0.000000	0.000000	0.000000	0.000000	0.000000	0.000000	0.000000	0.000000	0.000000	0.000000	0.000000	0.000000	0.000000	0.000000	0.000000	0.000000	0.000000	0.000000	0.000000	0.000000	0.000000	0.000000	0.000000	0.000000	0.000000	0.000000	0.000000	-93.175730	-8.087646	-44.081130	71.663070	-0.000003	0.000000	7.411315	-20.289900	-8.208743	0.000000	0.000000	0.000000	-94.678580	2.739549	56.382780	79.314210	0.000004	-0.000002	-2.123154	-0.229413	-0.114749	-0.599549	0.000000	0.000000
